<svg width="20.000122" height="20.000000" viewBox="0 0 20.0001 20" fill="none" xmlns="http://www.w3.org/2000/svg" xmlns:xlink="http://www.w3.org/1999/xlink">
	<desc>
			Created with Pixso.
	</desc>
	<defs/>
	<path id="Vector" d="M15.0671 0.271484C15.5001 0.0922852 15.964 0 16.4325 0C16.901 0 17.3649 0.0922852 17.7977 0.271484C18.2306 0.450684 18.6239 0.713867 18.9552 1.04492C19.2864 1.37598 19.5492 1.76953 19.7285 2.20215C19.9077 2.63525 20 3.09912 20 3.56738C20 4.03613 19.9077 4.5 19.7285 4.93262C19.5492 5.36572 19.2864 5.75879 18.9552 6.09033L18.4369 6.6084L13.3917 1.56299L13.9098 1.04492C14.2411 0.713867 14.6344 0.450684 15.0671 0.271484Z" fill="#C4C4C4" fill-opacity="1.000000" fill-rule="nonzero"/>
	<path id="Vector" d="M11.9772 2.97754L1.65454 13.3003C1.53149 13.4233 1.44275 13.5762 1.39697 13.7441L0.0352783 18.7368C-0.0592041 19.083 0.0391846 19.4536 0.292969 19.707C0.546631 19.9609 0.91687 20.0591 1.26306 19.9648L6.25586 18.603C6.42383 18.5571 6.57678 18.4688 6.69983 18.3452L17.0225 8.02295L11.9772 2.97754Z" fill="#C4C4C4" fill-opacity="1.000000" fill-rule="nonzero"/>
</svg>
