<svg width="20.000000" height="20.000000" viewBox="0 0 20 20" fill="none" xmlns="http://www.w3.org/2000/svg" xmlns:xlink="http://www.w3.org/1999/xlink">
	<desc>
			Created with Pixso.
	</desc>
	<defs/>
	<path id="Vector" d="M15.0684 0.271484C15.5 0.0922852 15.9648 0 16.4336 0C16.9023 0 17.3652 0.0922852 17.7988 0.271484C18.2305 0.450684 18.625 0.713867 18.9551 1.04492C19.2871 1.37598 19.5508 1.76953 19.7285 2.20215C19.9082 2.63525 20 3.09912 20 3.56738C20 4.03613 19.9082 4.5 19.7285 4.93262C19.5508 5.36572 19.2871 5.75879 18.9551 6.09033L18.4375 6.6084L13.3926 1.56299L13.9102 1.04492C14.2422 0.713867 14.6348 0.450684 15.0684 0.271484Z" fill="#D63641" fill-opacity="1.000000" fill-rule="nonzero"/>
	<path id="Vector" d="M11.9766 2.97754L1.6543 13.3003C1.53125 13.4233 1.44336 13.5762 1.39648 13.7441L0.0351562 18.7368C-0.0585938 19.083 0.0390625 19.4536 0.292969 19.707C0.546875 19.9609 0.916016 20.0591 1.26367 19.9648L6.25586 18.603C6.42383 18.5571 6.57617 18.4688 6.69922 18.3452L17.0215 8.02295L11.9766 2.97754Z" fill="#D63641" fill-opacity="1.000000" fill-rule="nonzero"/>
</svg>
